# xmcd
#
# Track frame offsets:
#	150
#	11720
#	13971
#	18428
#	23801
#	30849
#	39190
#	50040
#	56227
#	61747
#	70964
#	76630
#	89362
#	98115
#	106627
#	116409
#	120157
#	126453
#	132666
#	139948
#	145573
#	153847
#	165575
#	176200
#	185966
#	194777
#	210737
#	218053
#	223011
#	226693
#	235680
#	245156
#	251941
#	258677
#	263113
#	267682
#
# Disc length: 3780 seconds
#
# Revision: 1
# Processed by: cddbd v1.4PL0 Copyright (c) Steve Scherf et al.
# Submitted via: audiograbber 1.81.02
#
DISCID=110ec224
DTITLE=Sándor Márai - Sándor Márai - Himmel und Erde (Betrachtungen)
DYEAR=1900
DGENRE=
TTITLE0=Ich habe keine andere Waffe
TTITLE1=Die Prüfung
TTITLE2=Anfangen
TTITLE3=Glut
TTITLE4=Mit beiden Händen
TTITLE5=Die Welt mischt sich ein
TTITLE6=Unterfangen
TTITLE7=Freude
TTITLE8=Davor
TTITLE9=Reifen, Zeit
TTITLE10=Après
TTITLE11=Fünf Zeilen oder Zehn
TTITLE12=Erik Satie, Gnossienne Nr. 2
TTITLE13=Lesen
TTITLE14=Das Leben
TTITLE15=Ein Wort
TTITLE16=Attribut
TTITLE17=Punkt, Komma
TTITLE18=Konsonanten
TTITLE19=Der Romanheld
TTITLE20=Der Ausreisser
TTITLE21=Erik Satie, Gnossienne Nr. 3
TTITLE22='Zwischen Pfeffer und Salz'
TTITLE23=Der Ausgemusterte
TTITLE24=Rat und Gelöbnis
TTITLE25=Erik Satie, Gnossienne Nr. 1
TTITLE26=Spannung
TTITLE27=Unnütz
TTITLE28=Die Schande
TTITLE29=Einsamkeit
TTITLE30=Erik Satie, Gnossienne Nr. 4
TTITLE31=Gift
TTITLE32=Bilanz
TTITLE33=Zorn
TTITLE34=Botschaft
TTITLE35=Erik Satie, Gymnopédie Nr. 1
EXTD=Sándor Márai\nHimmel und Erde\nBetrachtungen\nAus dem Ungarischen Ernö Zel
EXTD=tner\nEine Auswahl. Gelesen von Charles Brauer
EXTT0=
EXTT1=
EXTT2=
EXTT3=
EXTT4=
EXTT5=
EXTT6=
EXTT7=
EXTT8=
EXTT9=
EXTT10=
EXTT11=
EXTT12=
EXTT13=
EXTT14=
EXTT15=
EXTT16=
EXTT17=
EXTT18=
EXTT19=
EXTT20=
EXTT21=
EXTT22=
EXTT23=
EXTT24=
EXTT25=
EXTT26=
EXTT27=
EXTT28=
EXTT29=
EXTT30=
EXTT31=
EXTT32=
EXTT33=
EXTT34=
EXTT35=
PLAYORDER=
